<svg id="Layer_2" data-name="Layer 2" xmlns="http://www.w3.org/2000/svg" viewBox="0 0 252 144"><defs><style>.cls-1,.cls-3{fill:none;}.cls-2{fill:#b2b79d;}.cls-3,.cls-6{stroke:#605a50;}.cls-3,.cls-5,.cls-6{stroke-miterlimit:10;}.cls-4,.cls-5,.cls-6{fill:#605a50;}.cls-5{stroke:#231f20;stroke-width:0.25px;}.cls-6{stroke-width:0.5px;}</style></defs><rect class="cls-1" x="155.49" y="72.7" width="92.58" height="44.19"/><path class="cls-2" d="M97.36,72.56l43.73.11A44.22,44.22,0,1,0,53.3,80.43Z"/><line class="cls-3" x1="21.17" y1="72.97" x2="224.91" y2="73.03"/><line class="cls-3" x1="96.85" y1="21.61" x2="96.85" y2="124.69"/><line class="cls-3" x1="22.09" y1="85.96" x2="96.67" y2="72.88"/><path class="cls-3" d="M96.88,72.91,64,78.66a33.27,33.27,0,0,0,66.1-5.73v.16Z"/><polygon class="cls-4" points="96.87 21.85 95 21.84 96.84 17.98 98.66 21.85 96.87 21.85"/><polygon class="cls-4" points="21.45 72.74 21.44 74.61 17.59 72.77 21.45 70.95 21.45 72.74"/><polygon class="cls-4" points="96.81 124.45 98.68 124.46 96.84 128.32 95.02 124.45 96.81 124.45"/><polygon class="cls-4" points="224.24 72.95 224.24 71.07 228.09 72.91 224.24 74.74 224.24 72.95"/><polygon class="cls-4" points="22.36 85.98 22.75 87.82 18.6 86.83 21.98 84.23 22.36 85.98"/><path class="cls-4" d="M19.15,30.5l-1.32-4a11,11,0,0,0,3.78-2.34A12.41,12.41,0,0,0,24.07,21h.6l3.78,2V64h-5.7V29.42Z"/><path class="cls-4" d="M40.27,54V55.7q0,3.12,2.58,3.12h.84Q46,58.82,46,56.3V45.86l-3.6,2.4H41.05q-6.9,0-6.9-7.68V28.52q0-7.56,6.9-7.56h3.78q6.9,0,6.9,7.56V56.36q0,7.68-6.9,7.68H41.41q-6.9,0-6.9-7.68V54ZM46,43V28.76q0-2.58-2.82-2.58h-.66a2.28,2.28,0,0,0-2.58,2.58V39.92q0,3.12,2.58,3.12Z"/><path class="cls-4" d="M64,64q-6.9,0-6.9-7.38V28.34Q57.13,21,64,21h4Q75,21,75,28.34V56.66Q75,64,68.05,64Zm1.14-37.86q-2.28,0-2.28,2.52V56.3a2.25,2.25,0,0,0,2.58,2.52h1.44q2.28,0,2.28-2.52V28.7a2.25,2.25,0,0,0-2.58-2.52Z"/><path class="cls-5" d="M78.47,23.71a5.27,5.27,0,0,1,1.08-1.63,5,5,0,0,1,3.6-1.52,5.14,5.14,0,0,1,2,.41,5.15,5.15,0,0,1,3.17,4.73,5.06,5.06,0,0,1-.41,2,4.93,4.93,0,0,1-1.11,1.61,5.25,5.25,0,0,1-1.65,1.08,5.14,5.14,0,0,1-2,.41,5,5,0,0,1-2-.41,5,5,0,0,1-2.69-2.69,5.06,5.06,0,0,1-.41-2A5,5,0,0,1,78.47,23.71Zm2.64,4a2.78,2.78,0,0,0,2,.84,2.81,2.81,0,0,0,2-.84,2.7,2.7,0,0,0,.86-2,2.9,2.9,0,0,0-2.88-2.93,2.78,2.78,0,0,0-2,.84,2.84,2.84,0,0,0-.84,2.09A2.71,2.71,0,0,0,81.11,27.69Z"/><path class="cls-6" d="M115.05,39.8v1.66q0,4.4-4.14,4.39h-2.23q-4.14,0-4.14-4.39V24.39c0-2.92,1.38-4.39,4.14-4.39h2.23c2.76,0,4.14,1.47,4.14,4.39v2.92h-3.46V24.65A1.36,1.36,0,0,0,110,23.13h-.68c-.91,0-1.37.51-1.37,1.52V41.21c0,1,.46,1.51,1.37,1.51h.86c.92,0,1.37-.51,1.37-1.51V39.8Z"/><path class="cls-6" d="M128.22,45.85h-3.45V24.43q0-4.42,4.14-4.43h2.59q4.14,0,4.14,4.43V45.85h-3.46V36.38h-4Zm4-12.6v-8.6a1.34,1.34,0,0,0-1.51-1.52h-.93a1.35,1.35,0,0,0-1.52,1.52v8.6Z"/><path class="cls-6" d="M145.9,20h6.3c2.78,0,4.18,1.48,4.18,4.43V32.1q0,4.4-4.14,4.39h-2.88v9.36H145.9Zm3.46,13.36h2.19c.91,0,1.37-.51,1.37-1.51v-7.2a1.36,1.36,0,0,0-1.55-1.52h-2Z"/><path class="cls-6" d="M166.31,45.85V20h3.46V45.85Z"/><path class="cls-6" d="M185.71,23.13V45.85h-3.45V23.13H179V20H189v3.13Z"/><path class="cls-6" d="M201.48,45.85H198V24.43Q198,20,202.17,20h2.59q4.14,0,4.14,4.43V45.85h-3.46V36.38h-4Zm4-12.6v-8.6a1.34,1.34,0,0,0-1.51-1.52H203a1.35,1.35,0,0,0-1.52,1.52v8.6Z"/><path class="cls-6" d="M227.37,45.85h-8.21V20h3.46V42.72h4.75Z"/><path class="cls-6" d="M109.61,59.75l2.14-10.13h2.54V66.85H112l.24-11.28-1.73,8.16h-1.78L107,55.57l.24,11.28h-2.31V49.62h2.55Z"/><path class="cls-6" d="M122.23,66.85h-2.3V52.57c0-2,.92-3,2.76-3h1.73c1.84,0,2.76,1,2.76,3V66.85h-2.3V60.54h-2.65Zm2.65-8.4V52.71a.89.89,0,0,0-1-1h-.63a.89.89,0,0,0-1,1v5.74Z"/><path class="cls-6" d="M137.6,58V49.62h2.3V66.85h-2.3V63.42l-2.48-7.85V66.85h-2.3V49.62h2.3Z"/><path class="cls-6" d="M147.84,66.85h-2.3V52.57c0-2,.92-3,2.76-3H150c1.84,0,2.76,1,2.76,3V66.85h-2.31V60.54h-2.64Zm2.64-8.4V52.71a.88.88,0,0,0-1-1h-.63a.89.89,0,0,0-1,1v5.74Z"/><path class="cls-6" d="M162,60.54V58.45h3.5v8.4H161c-1.77,0-2.66-1-2.66-2.9V52.57c0-2,.89-3,2.66-3h1.59c1.95,0,2.92,1,2.92,3v1.87h-2.3V53c0-.83-.33-1.24-1-1.24h-.58c-.67,0-1,.41-1,1.24V63.51c0,.84.34,1.25,1,1.25h1.56V60.54Z"/><path class="cls-6" d="M171,66.85V49.62h5.71v2.09h-3.41v5.23h3V59h-3v5.73h3.41v2.09Z"/><path class="cls-6" d="M186.6,59.75l2.14-10.13h2.54V66.85H189l.24-11.28-1.73,8.16h-1.78L184,55.57l.24,11.28h-2.31V49.62h2.55Z"/><path class="cls-6" d="M197,66.85V49.62h5.71v2.09h-3.4v5.23h3V59h-3v5.73h3.4v2.09Z"/><path class="cls-6" d="M212.79,58V49.62h2.3V66.85h-2.3V63.42l-2.48-7.85V66.85H208V49.62h2.3Z"/><path class="cls-6" d="M224.52,51.71V66.85h-2.3V51.71H220V49.62h6.72v2.09Z"/></svg>